<?xml version="1.0" encoding="UTF-8"?>
<svg version="1.1" xmlns="http://www.w3.org/2000/svg" width="2490" height="2500">
<path d="M0 0 C821.7 0 1643.4 0 2490 0 C2490 825 2490 1650 2490 2500 C1668.3 2500 846.6 2500 0 2500 C0 1675 0 850 0 0 Z " fill="#FEFEFE" transform="translate(0,0)"/>
<path d="M0 0 C0 387.75 0 775.5 0 1175 C-237.17467253 1177.30266672 -237.17467253 1177.30266672 -308.30107903 1177.77564359 C-318.05345964 1177.84087501 -327.80581393 1177.9099166 -337.55817153 1177.97848307 C-356.78152442 1178.11357884 -376.00489098 1178.24658163 -395.22827148 1178.37768555 C-396.33940165 1178.38526408 -397.45053181 1178.39284261 -398.59533259 1178.40065079 C-400.84446101 1178.41599031 -403.09358944 1178.43132972 -405.34271787 1178.44666901 C-406.45833923 1178.454278 -407.5739606 1178.46188699 -408.72338867 1178.46972656 C-409.84014964 1178.47734294 -410.95691061 1178.48495932 -412.10751282 1178.4928065 C-424.73240446 1178.57894773 -437.35729176 1178.66571845 -449.98217773 1178.75268555 C-451.12476373 1178.76055568 -452.26734973 1178.76842582 -453.44455955 1178.77653445 C-472.8052799 1178.90994292 -492.16599071 1179.04470127 -511.52669686 1179.18015331 C-522.16563595 1179.25451701 -532.80457888 1179.32818309 -543.44353676 1179.3998127 C-587.76512568 1179.69831523 -632.08520627 1180.05590338 -676.40528272 1180.53045566 C-720.50465378 1181.0022986 -764.60440751 1181.34551007 -808.70520176 1181.65240678 C-819.6122127 1181.72840601 -830.51920823 1181.80652707 -841.42620347 1181.88474101 C-860.98822958 1182.02499249 -880.55026354 1182.16410947 -900.11230469 1182.30224609 C-901.26555697 1182.31039013 -902.41880924 1182.31853416 -903.60700856 1182.32692498 C-909.44327449 1182.36813541 -915.27954051 1182.40933225 -921.11580658 1182.45052338 C-932.77902793 1182.53284493 -944.44224861 1182.6152605 -956.10546875 1182.69775391 C-957.83033145 1182.7099532 -957.83033145 1182.7099532 -959.59003986 1182.72239894 C-979.10779908 1182.8604759 -998.6255504 1182.9996441 -1018.14329708 1183.13948298 C-1028.95843168 1183.21692331 -1039.77356941 1183.29384263 -1050.58871841 1183.36924744 C-1061.70765909 1183.4467831 -1072.82659056 1183.5255388 -1083.94551405 1183.60550129 C-1086.93204572 1183.62693851 -1089.91857861 1183.64820076 -1092.90511155 1183.66945934 C-1114.32620788 1183.82266815 -1135.74681111 1183.99897683 -1157.16719694 1184.23230487 C-1160.42572647 1184.26767324 -1163.68426237 1184.30238923 -1166.94280088 1184.33691931 C-1169.12396088 1184.36009452 -1171.30512073 1184.38328356 -1173.48628044 1184.40648651 C-1174.56468054 1184.41795057 -1175.64308064 1184.42941464 -1176.75415953 1184.44122609 C-1181.80855609 1184.49543491 -1186.86291065 1184.55155318 -1191.91721559 1184.61375523 C-1240.94634114 1185.21086541 -1289.96228519 1185 -1339 1185 C-1339 858.3 -1339 531.6 -1339 195 C-1328.605 193.515 -1328.605 193.515 -1318 192 C-1313.90067414 191.2552335 -1313.90067414 191.2552335 -1309.80566406 190.48730469 C-1303.82861974 189.44917551 -1297.79904949 188.7270271 -1291.78451538 187.94058228 C-1278.87890205 186.250291 -1266.00986649 184.43527054 -1253.16699219 182.31347656 C-1246.35815825 181.19443744 -1239.55262093 180.25758183 -1232.6953125 179.4921875 C-1229.83089239 179.11066854 -1227.0456913 178.64291043 -1224.2109375 178.1015625 C-1215.20875609 176.42856349 -1206.10974233 175.36498509 -1197.03369141 174.17724609 C-1188.94884886 173.11612057 -1180.90519551 172.03485173 -1172.89355469 170.50488281 C-1166.88767034 169.45694417 -1160.82884105 168.73092257 -1154.78451538 167.94058228 C-1141.87890205 166.250291 -1129.00986649 164.43527054 -1116.16699219 162.31347656 C-1109.35815825 161.19443744 -1102.55262093 160.25758183 -1095.6953125 159.4921875 C-1092.83089239 159.11066854 -1090.0456913 158.64291043 -1087.2109375 158.1015625 C-1078.20875609 156.42856349 -1069.10974233 155.36498509 -1060.03369141 154.17724609 C-1051.89685693 153.1092967 -1043.79953028 152.02327939 -1035.73632812 150.48242188 C-1028.56644286 149.21835217 -1021.3136441 148.42414645 -1014.09375 147.5 C-1008.61062348 146.78674777 -1003.1508332 146.06930734 -997.71875 145.03125 C-988.88695832 143.35895808 -979.94327255 142.34319999 -971.03369141 141.17724609 C-962.89685693 140.1092967 -954.79953028 139.02327939 -946.73632812 137.48242188 C-939.56644286 136.21835217 -932.3136441 135.42414645 -925.09375 134.5 C-919.61062348 133.78674777 -914.1508332 133.06930734 -908.71875 132.03125 C-899.88695832 130.35895808 -890.94327255 129.34319999 -882.03369141 128.17724609 C-873.94884886 127.11612057 -865.90519551 126.03485173 -857.89355469 124.50488281 C-851.88767034 123.45694417 -845.82884105 122.73092257 -839.78451538 121.94058228 C-826.87890205 120.250291 -814.00986649 118.43527054 -801.16699219 116.31347656 C-794.35815825 115.19443744 -787.55262093 114.25758183 -780.6953125 113.4921875 C-777.81339739 113.10833834 -775.00879932 112.63722148 -772.15625 112.09375 C-765.06915467 110.7773852 -757.92940806 109.87482985 -750.78451538 108.94058228 C-737.87890205 107.250291 -725.00986649 105.43527054 -712.16699219 103.31347656 C-705.35815825 102.19443744 -698.55262093 101.25758183 -691.6953125 100.4921875 C-688.83089239 100.11066854 -686.0456913 99.64291043 -683.2109375 99.1015625 C-674.20875609 97.42856349 -665.10974233 96.36498509 -656.03369141 95.17724609 C-647.89685693 94.1092967 -639.79953028 93.02327939 -631.73632812 91.48242188 C-624.56644286 90.21835217 -617.3136441 89.42414645 -610.09375 88.5 C-604.61062348 87.78674777 -599.1508332 87.06930734 -593.71875 86.03125 C-584.88695832 84.35895808 -575.94327255 83.34319999 -567.03369141 82.17724609 C-558.94884886 81.11612057 -550.90519551 80.03485173 -542.89355469 78.50488281 C-536.88767034 77.45694417 -530.82884105 76.73092257 -524.78451538 75.94058228 C-511.87890205 74.250291 -499.00986649 72.43527054 -486.16699219 70.31347656 C-479.35815825 69.19443744 -472.55262093 68.25758183 -465.6953125 67.4921875 C-462.81339739 67.10833834 -460.00879932 66.63722148 -457.15625 66.09375 C-450.06915467 64.7773852 -442.92940806 63.87482985 -435.78451538 62.94058228 C-422.87890205 61.250291 -410.00986649 59.43527054 -397.16699219 57.31347656 C-390.35815825 56.19443744 -383.55262093 55.25758183 -376.6953125 54.4921875 C-373.83089239 54.11066854 -371.0456913 53.64291043 -368.2109375 53.1015625 C-359.20875609 51.42856349 -350.10974233 50.36498509 -341.03369141 49.17724609 C-332.94884886 48.11612057 -324.90519551 47.03485173 -316.89355469 45.50488281 C-310.88767034 44.45694417 -304.82884105 43.73092257 -298.78451538 42.94058228 C-285.87890205 41.250291 -273.00986649 39.43527054 -260.16699219 37.31347656 C-253.35815825 36.19443744 -246.55262093 35.25758183 -239.6953125 34.4921875 C-236.83089239 34.11066854 -234.0456913 33.64291043 -231.2109375 33.1015625 C-222.20875609 31.42856349 -213.10974233 30.36498509 -204.03369141 29.17724609 C-195.89685693 28.1092967 -187.79953028 27.02327939 -179.73632812 25.48242188 C-172.56644286 24.21835217 -165.3136441 23.42414645 -158.09375 22.5 C-152.59234207 21.7843697 -147.11469001 21.06258964 -141.6640625 20.0234375 C-134.745086 18.71416603 -127.764189 17.85322623 -120.78451538 16.94058228 C-107.87890205 15.250291 -95.00986649 13.43527054 -82.16699219 11.31347656 C-75.35815825 10.19443744 -68.55262093 9.25758183 -61.6953125 8.4921875 C-58.8407495 8.11198143 -56.06683717 7.64589085 -53.2421875 7.10546875 C-44.0314552 5.39294431 -34.71689957 4.31492133 -25.43017578 3.10180664 C-22.95312762 2.77730148 -20.47655793 2.44931588 -18 2.12109375 C-17.24066162 2.02316025 -16.48132324 1.92522675 -15.69897461 1.82432556 C-1.95335938 0 -1.95335938 0 0 0 Z " fill="#000000" transform="translate(2480,10)"/>
<path d="M0 0 C87.43233643 -0.04167336 174.86475454 -0.05745525 496.03478202 0.38058157 C521.38451413 0.4209493 546.73424804 0.45966698 572.08398438 0.49731445 C828.38965351 0.87870301 1084.6945479 1.4499883 1341 2 C1341 388.1 1341 774.2 1341 1172 C1333.13449089 1171.39496084 1325.53501209 1170.76500474 1317.78515625 1169.546875 C1316.86423691 1169.40658875 1315.94331757 1169.26630249 1314.99449158 1169.12176514 C1313.03258453 1168.82285522 1311.0709641 1168.52205861 1309.10961914 1168.21948242 C1293.42804202 1165.80335609 1277.73908152 1163.50762383 1262 1161.5 C1246.7902941 1159.55593139 1231.6311307 1157.33384377 1216.47021484 1155.04199219 C1203.32897997 1153.05816911 1190.18268005 1151.18625512 1177 1149.5 C1161.79046116 1147.55448038 1146.63117069 1145.33384982 1131.47021484 1143.04199219 C1118.32897997 1141.05816911 1105.18268005 1139.18625512 1092 1137.5 C1076.79046116 1135.55448038 1061.63117069 1133.33384982 1046.47021484 1131.04199219 C1033.32897997 1129.05816911 1020.18268005 1127.18625512 1007 1125.5 C991.79046116 1123.55448038 976.63117069 1121.33384982 961.47021484 1119.04199219 C948.32897997 1117.05816911 935.18268005 1115.18625512 922 1113.5 C906.79046116 1111.55448038 891.63117069 1109.33384982 876.47021484 1107.04199219 C863.32897997 1105.05816911 850.18268005 1103.18625512 837 1101.5 C821.79046116 1099.55448038 806.63117069 1097.33384982 791.47021484 1095.04199219 C778.32897997 1093.05816911 765.18268005 1091.18625512 752 1089.5 C736.79046116 1087.55448038 721.63117069 1085.33384982 706.47021484 1083.04199219 C693.32897997 1081.05816911 680.18268005 1079.18625512 667 1077.5 C651.79046116 1075.55448038 636.63117069 1073.33384982 621.47021484 1071.04199219 C608.32897997 1069.05816911 595.18268005 1067.18625512 582 1065.5 C566.79046116 1063.55448038 551.63117069 1061.33384982 536.47021484 1059.04199219 C523.32897997 1057.05816911 510.18268005 1055.18625512 497 1053.5 C481.79046116 1051.55448038 466.63117069 1049.33384982 451.47021484 1047.04199219 C438.32897997 1045.05816911 425.18268005 1043.18625512 412 1041.5 C396.79046116 1039.55448038 381.63117069 1037.33384982 366.47021484 1035.04199219 C353.32897997 1033.05816911 340.18268005 1031.18625512 327 1029.5 C311.79046116 1027.55448038 296.63117069 1025.33384982 281.47021484 1023.04199219 C268.32897997 1021.05816911 255.18268005 1019.18625512 242 1017.5 C226.79046116 1015.55448038 211.63117069 1013.33384982 196.47021484 1011.04199219 C183.32897997 1009.05816911 170.18268005 1007.18625512 157 1005.5 C141.79282065 1003.55478219 126.63582799 1001.33478909 111.4772644 999.04299927 C97.42674087 996.92159353 83.36758932 994.94733802 69.27279663 993.14465332 C54.89927997 991.30301463 40.57389118 989.1865412 26.25415039 986.96655273 C25.0471347 986.78119209 25.0471347 986.78119209 23.81573486 986.59208679 C22.33501098 986.36451087 20.85469269 986.13426801 19.37493896 985.90046692 C15.33434756 985.28080848 11.30257709 984.82429513 7.23014832 984.46343994 C6.24817065 984.3759058 5.26619299 984.28837166 4.25445843 984.19818497 C3.51048715 984.13278393 2.76651587 984.06738289 2 984 C1.99826375 983.12423669 1.9965275 982.24847339 1.99473864 981.3461718 C1.8617532 914.29607304 1.72581194 847.24598043 1.58773206 780.19589198 C1.57373142 773.39692398 1.55974368 766.59795596 1.5457902 759.79898787 C1.46185282 718.89984259 1.37685077 678.00069971 1.2890625 637.1015625 C1.28760258 636.42137974 1.28614265 635.74119697 1.28463849 635.04040261 C1.12362404 560.05549077 0.94336822 485.07066685 0.7109375 410.0859375 C0.70802108 409.14403854 0.70510466 408.20213957 0.70209986 407.23169822 C0.61330791 378.56574989 0.5215529 349.89981121 0.42919171 321.2338742 C0.3468393 295.67154664 0.26525376 270.10921702 0.1875 244.546875 C0.1851623 243.77884829 0.18282459 243.01082159 0.18041605 242.21952134 C0.05219736 200.02656691 -0.0417965 157.83379554 -0.0625 115.640625 C-0.06303753 114.59432136 -0.06357506 113.54801771 -0.06412888 112.4700079 C-0.08256617 74.97998719 -0.0404941 37.48999372 0 0 Z " fill="#000000" transform="translate(1139,1316)"/>
<path d="M0 0 C0 321.75 0 643.5 0 975 C-143.88 975.66 -287.76 976.32 -436 977 C-485.5 977.495 -485.5 977.495 -536 978 C-552.67797353 978.10777276 -569.35490432 978.21357708 -586.03294706 978.27047992 C-591.49545465 978.28992424 -596.95794626 978.31327017 -602.42044067 978.33607483 C-611.69118648 978.37438015 -620.96193755 978.41086566 -630.23269653 978.4458313 C-653.63812228 978.53423589 -677.04350799 978.63265236 -700.44889617 978.73042035 C-704.20588823 978.74607271 -707.96288076 978.76160786 -711.71987343 978.77711296 C-746.36809751 978.92032729 -781.01610522 979.08767876 -815.6640625 979.28515625 C-817.74876213 979.29699617 -819.83346176 979.30883572 -821.91816139 979.3206749 C-840.39358519 979.42579354 -858.86899383 979.53330173 -877.34437013 979.64647681 C-884.39670894 979.68961386 -891.44905489 979.73143769 -898.50140643 979.7724399 C-902.47090725 979.79560076 -906.44040135 979.8193458 -910.40988541 979.84523201 C-943.60723539 980.05947582 -976.80067309 980 -1010 980 C-1010 701.81 -1010 423.62 -1010 137 C-997.625 135.515 -997.625 135.515 -985 134 C-980.78364726 133.40036193 -976.58017893 132.7883604 -972.375 132.125 C-961.10428651 130.40092565 -949.81171445 128.92463106 -938.5 127.5 C-926.25932042 125.95795597 -914.04856884 124.31024825 -901.85180664 122.44702148 C-892.72713092 121.06915047 -883.57848449 119.93041905 -874.41848755 118.81710815 C-863.91978958 117.53674056 -853.45855138 116.07363777 -843 114.5 C-831.87025241 112.82537122 -820.73536538 111.29545599 -809.5625 109.9375 C-799.99853658 108.77491839 -790.46158129 107.51743721 -780.9375 106.0625 C-769.8122638 104.36343122 -758.66502999 102.90682073 -747.5 101.5 C-736.48127649 100.1112421 -725.47904848 98.67963055 -714.5 97 C-702.67287634 95.1906266 -690.81636878 93.67388496 -678.94650269 92.17825317 C-667.55774153 90.74109705 -656.19988014 89.18059913 -644.85180664 87.44702148 C-635.72713092 86.06915047 -626.57848449 84.93041905 -617.41848755 83.81710815 C-606.91978958 82.53674056 -596.45855138 81.07363777 -586 79.5 C-574.87025241 77.82537122 -563.73536538 76.29545599 -552.5625 74.9375 C-542.99853658 73.77491839 -533.46158129 72.51743721 -523.9375 71.0625 C-511.96473089 69.23399426 -499.96398643 67.69236494 -487.94842529 66.17852783 C-476.55902439 64.74127502 -465.2005192 63.18069676 -453.85180664 61.44702148 C-444.72713092 60.06915047 -435.57848449 58.93041905 -426.41848755 57.81710815 C-415.91978753 56.53674031 -405.45856263 55.07356793 -395 53.5 C-382.69833432 51.64934723 -370.38854119 50.01754494 -358.0390625 48.51953125 C-347.61912478 47.24490154 -337.2418632 45.74004914 -326.86154175 44.17825317 C-316.44464555 42.61423736 -306.01910509 41.20840134 -295.5625 39.9375 C-285.99853658 38.77491839 -276.46158129 37.51743721 -266.9375 36.0625 C-254.96473089 34.23399426 -242.96398643 32.69236494 -230.94842529 31.17852783 C-219.55902439 29.74127502 -208.2005192 28.18069676 -196.85180664 26.44702148 C-187.72713092 25.06915047 -178.57848449 23.93041905 -169.41848755 22.81710815 C-158.91978958 21.53674056 -148.45855138 20.07363777 -138 18.5 C-126.87025241 16.82537122 -115.73536538 15.29545599 -104.5625 13.9375 C-94.99853231 12.77491787 -85.46160177 11.51731941 -75.9375 10.0625 C-62.12426611 7.95450286 -48.27052295 6.19699246 -34.40843201 4.44673157 C-31.34251987 4.05946867 -28.2767763 3.67089591 -25.21118164 3.28112793 C-23.73321635 3.09322056 -22.25518853 2.90580446 -20.77709961 2.71887207 C-18.68951564 2.45379876 -16.6025108 2.18457052 -14.515625 1.9140625 C-13.32743164 1.76146973 -12.13923828 1.60887695 -10.91503906 1.45166016 C-1.54594595 0 -1.54594595 0 0 0 Z " fill="#000000" transform="translate(1020,223)"/>
<path d="M0 0 C159 0 159 0 228 1 C243.39054121 1.11422863 258.77953828 1.21898576 274.17017651 1.27049255 C279.55106456 1.28943146 284.9319332 1.31294086 290.31280518 1.3359375 C299.41651737 1.37440103 308.52023542 1.41077695 317.6239624 1.44555664 C340.30889705 1.53250817 362.99377562 1.6329151 385.67865038 1.73415184 C389.22818373 1.74997241 392.77771756 1.76568305 396.32725143 1.78138733 C433.1773286 1.94502895 470.02601929 2.16982312 506.875 2.5 C509.20941158 2.52083819 511.5438232 2.54167152 513.87823486 2.5625 C515.03311087 2.5728125 516.18798687 2.583125 517.37785912 2.59375 C523.24929938 2.64612137 529.12074232 2.69818321 534.9921875 2.75 C536.15580936 2.7603125 537.31943123 2.770625 538.51831436 2.78125 C560.22294685 2.9722947 581.92776241 3.11680698 603.6328125 3.25 C604.89278592 3.25773437 604.89278592 3.25773437 606.17821336 3.265625 C617.3800502 3.33428407 628.58189461 3.40166879 639.783741 3.46875 C655.24255323 3.56132983 670.70136051 3.65470372 686.16015625 3.75 C687.41522842 3.75773437 687.41522842 3.75773437 688.69565558 3.765625 C721.27673433 3.96679747 753.85691528 4.22451349 786.4375 4.5 C860.62423811 5.10253188 934.81224612 5.5392065 1009 6 C1009 327.75 1009 649.5 1009 981 C996.61679419 979.76167942 984.40018744 978.45132801 972.125 976.5625 C969.37795254 976.1448145 966.63048833 975.72993686 963.8828125 975.31640625 C962.83515968 975.15861443 962.83515968 975.15861443 961.76634216 974.99763489 C946.80485587 972.76094679 931.79929253 970.83298068 916.79516602 968.90795898 C899.01072293 966.62526752 881.2562566 964.20478079 863.52230835 961.55844116 C850.39420455 959.60246597 837.25123969 957.84460012 824.08108521 956.19747925 C810.66449292 954.51568654 797.29034054 952.60937215 783.91699219 950.61474609 C771.46140943 948.76031105 758.99544387 947.06256157 746.5 945.5 C732.2759115 943.72127055 718.09484991 941.72936419 703.91699219 939.61474609 C691.46140943 937.76031105 678.99544387 936.06256157 666.5 934.5 C652.2759115 932.72127055 638.09484991 930.72936419 623.91699219 928.61474609 C611.46140943 926.76031105 598.99544387 925.06256157 586.5 923.5 C572.2759115 921.72127055 558.09484991 919.72936419 543.91699219 917.61474609 C531.46140943 915.76031105 518.99544387 914.06256157 506.5 912.5 C492.2759115 910.72127055 478.09484991 908.72936419 463.91699219 906.61474609 C451.46140943 904.76031105 438.99544387 903.06256157 426.5 901.5 C412.2759115 899.72127055 398.09484991 897.72936419 383.91699219 895.61474609 C371.46140943 893.76031105 358.99544387 892.06256157 346.5 890.5 C332.2759115 888.72127055 318.09484991 886.72936419 303.91699219 884.61474609 C291.46140943 882.76031105 278.99544387 881.06256157 266.5 879.5 C252.27827198 877.72156573 238.09951428 875.73025962 223.92404175 873.61575317 C211.32061196 871.73906012 198.70587336 870.02219367 186.0625 868.4375 C170.85804457 866.5315816 155.70140916 864.3871732 140.546875 862.12109375 C131.6362655 860.78938121 122.71220137 859.57387386 113.78271484 858.37695312 C110.79802941 857.97264059 107.81495043 857.55776509 104.83203125 857.140625 C93.62176667 855.57499138 82.40822021 854.04492572 71.18359375 852.5859375 C70.22079498 852.46078262 69.25799622 852.33562775 68.26602173 852.2066803 C63.52733183 851.59146933 58.78831858 850.97888479 54.04882812 850.36987305 C36.01271858 848.03836422 18.01674945 845.50232631 0 843 C0 564.81 0 286.62 0 0 Z " fill="#000000" transform="translate(10,1303)"/>
</svg>
